<?xml version="1.0" encoding="UTF-8"?>
<svg id="_レイヤー_1" data-name="レイヤー 1" xmlns="http://www.w3.org/2000/svg" xmlns:xlink="http://www.w3.org/1999/xlink" viewBox="0 0 481.03 512">
  <defs>
    <style>
      .cls-1 {
        fill: url(#_名称未設定グラデーション_50-2);
      }

      .cls-2 {
        fill: url(#_名称未設定グラデーション_50-3);
      }

      .cls-3, .cls-4 {
        fill: #fff;
      }

      .cls-5 {
        fill: url(#_名称未設定グラデーション_50);
      }

      .cls-6 {
        fill: url(#_名称未設定グラデーション_50-4);
      }

      .cls-7 {
        fill: url(#_名称未設定グラデーション_52);
      }

      .cls-4 {
        stroke: #fff;
        stroke-miterlimit: 10;
        stroke-width: 10px;
      }
    </style>
    <linearGradient id="_名称未設定グラデーション_52" data-name="名称未設定グラデーション 52" x1="-9.29" y1="4.41" x2="320.15" y2="351.5" gradientUnits="userSpaceOnUse">
      <stop offset="0" stop-color="#2563eb"/>
      <stop offset=".5" stop-color="#784285" stop-opacity=".95"/>
      <stop offset=".84" stop-color="#ac2e45" stop-opacity=".91"/>
      <stop offset="1" stop-color="#c1272d" stop-opacity=".9"/>
    </linearGradient>
    <linearGradient id="_名称未設定グラデーション_50" data-name="名称未設定グラデーション 50" x1="-8.29" y1="3.46" x2="321.15" y2="350.55" gradientUnits="userSpaceOnUse">
      <stop offset="0" stop-color="blue"/>
      <stop offset=".09" stop-color="#1203eb" stop-opacity=".99"/>
      <stop offset=".54" stop-color="#6f1685" stop-opacity=".94"/>
      <stop offset=".85" stop-color="#aa2245" stop-opacity=".91"/>
      <stop offset="1" stop-color="#c1272d" stop-opacity=".9"/>
    </linearGradient>
    <linearGradient id="_名称未設定グラデーション_50-2" data-name="名称未設定グラデーション 50" x1="-1.41" y1="-3.07" x2="328.03" y2="344.02" xlink:href="#_名称未設定グラデーション_50"/>
    <linearGradient id="_名称未設定グラデーション_50-3" data-name="名称未設定グラデーション 50" x1="1.74" y1="-6.05" x2="331.17" y2="341.03" xlink:href="#_名称未設定グラデーション_50"/>
    <linearGradient id="_名称未設定グラデーション_50-4" data-name="名称未設定グラデーション 50" x1="-34.03" y1="27.9" x2="295.41" y2="374.98" xlink:href="#_名称未設定グラデーション_50"/>
  </defs>
  <g>
    <polygon class="cls-3" points="364.95 449.36 364.95 350.9 417.95 404 369.33 453.77 364.95 449.36"/>
    <path class="cls-3" d="M369.95,362.98l40.98,41.05-40.98,41.94v-82.99M359.95,338.81v112.61l9.41,9.46,55.62-56.93-65.03-65.15h0Z"/>
  </g>
  <g>
    <path class="cls-3" d="M422.18,501.63c-6.08,0-11.03-5.42-16.27-11.17-1.24-1.37-2.51-2.75-3.81-4.09l48.91-49c1.14,1.11,2.36,2.23,3.62,3.38,4.43,4.07,9.95,9.14,10.51,12.77.15,1.04.17,5.22.04,6.61-2.78,6.18-33.89,38.09-40.13,41.14-.98.24-1.94.35-2.86.35h0Z"/>
    <path class="cls-3" d="M451.13,444.33s.08.07.12.11c2.7,2.48,8.27,7.61,8.94,9.84.07.9.09,2.97.05,4.36-1.76,2.65-7.39,9.5-17.5,19.83-9.86,10.07-17.03,16.33-19.58,18.08-.34.05-.66.08-.98.08-3.88,0-8.1-4.63-12.57-9.54-.18-.2-.37-.41-.56-.61l42.08-42.16M451.14,430.17l-56.22,56.32c8.48,7.02,15.49,20.14,27.27,20.14,1.37,0,2.8-.18,4.3-.56,5.64-1.44,42.56-38.88,43.6-44.88.25-1.46.23-6.93,0-8.43-1.24-8.05-13.94-16.25-18.94-22.59h0Z"/>
  </g>
  <g>
    <path class="cls-3" d="M371.44,471.79l68.5-68.62-74.99-73.52v-20.98l108.83,106.7c1.43,1.4,2.23,3.27,2.25,5.27.02,2-.74,3.89-2.14,5.32-1.42,1.45-3.32,2.25-5.35,2.25s-3.83-.76-5.24-2.14l-11.22-11-68.61,68.73-12.02-12Z"/>
    <path class="cls-3" d="M369.95,320.56l100.33,98.37c.61.6.74,1.28.75,1.75,0,.47-.12,1.16-.71,1.77-.6.62-1.3.75-1.78.75s-1.14-.12-1.74-.71l-7.69-7.53-7.08-6.94-7,7.01-61.58,61.69-4.94-4.93,61.4-61.51,7.13-7.14-7.21-7.06-69.89-68.52v-6.98M359.95,296.75v34.99l72.89,71.46-68.47,68.59,19.1,19.06,68.64-68.76,7.69,7.53c2.43,2.38,5.59,3.57,8.74,3.57s6.47-1.25,8.92-3.75c4.83-4.93,4.75-12.84-.17-17.67l-117.33-115.03h0Z"/>
  </g>
  <path class="cls-4" d="M359.95,296.75V20.79c0-8.72-7.07-15.79-15.79-15.79H20.79c-8.72,0-15.79,7.07-15.79,15.79v470.41c0,8.72,7.07,15.79,15.79,15.79h323.36c8.72,0,15.79-7.07,15.79-15.79v-39.78M359.95,338.81v-7.07l-48.6-47.65"/>
  <g>
    <polygon class="cls-7" points="369.36 460.89 424.98 403.96 359.95 338.81 359.95 451.43 369.36 460.89"/>
    <path class="cls-5" d="M451.14,430.17l-56.22,56.32c9.47,7.84,17.09,23.26,31.57,19.58,5.64-1.44,42.56-38.88,43.6-44.88.25-1.46.23-6.93,0-8.43-1.24-8.05-13.94-16.25-18.94-22.59Z"/>
    <path class="cls-1" d="M477.28,411.78l-117.33-115.03v34.99l72.89,71.46-68.47,68.59,19.1,19.06,68.64-68.76,7.69,7.53c2.43,2.38,5.59,3.57,8.74,3.57s6.47-1.25,8.92-3.75c4.83-4.93,4.75-12.84-.17-17.67Z"/>
    <path class="cls-2" d="M84.91,55.17h-20.66v45.71h17.26c20.18,0,28.69-8.75,28.69-23.83s-9.48-21.88-25.28-21.88Z"/>
    <path class="cls-6" d="M311.17,266.42c4.83-4.93,12.74-5.01,17.67-.17l31.11,30.5V20.79c0-8.72-7.07-15.79-15.79-15.79H20.79c-8.72,0-15.79,7.07-15.79,15.79v470.41c0,8.72,7.07,15.79,15.79,15.79h323.36c8.72,0,15.79-7.07,15.79-15.79v-39.78l-153.85-154.69,56.22-55.72,97.62,97.8v-7.07l-48.6-47.65c-4.93-4.83-5-12.74-.17-17.67ZM55.26,468.19h-30.39c-2.71,0-4.9-2.19-4.9-4.9s2.2-4.9,4.9-4.9h30.39c2.71,0,4.9,2.19,4.9,4.9s-2.2,4.9-4.9,4.9ZM55.26,432.68h-30.39c-2.71,0-4.9-2.19-4.9-4.9s2.2-4.9,4.9-4.9h30.39c2.71,0,4.9,2.19,4.9,4.9s-2.2,4.9-4.9,4.9ZM55.26,397.17h-30.39c-2.71,0-4.9-2.19-4.9-4.9s2.2-4.9,4.9-4.9h30.39c2.71,0,4.9,2.19,4.9,4.9s-2.2,4.9-4.9,4.9ZM55.26,361.65h-30.39c-2.71,0-4.9-2.19-4.9-4.9s2.2-4.9,4.9-4.9h30.39c2.71,0,4.9,2.19,4.9,4.9s-2.2,4.9-4.9,4.9ZM55.26,326.14h-30.39c-2.71,0-4.9-2.19-4.9-4.9s2.2-4.9,4.9-4.9h30.39c2.71,0,4.9,2.19,4.9,4.9s-2.2,4.9-4.9,4.9ZM55.26,290.62h-30.39c-2.71,0-4.9-2.19-4.9-4.9s2.2-4.9,4.9-4.9h30.39c2.71,0,4.9,2.19,4.9,4.9s-2.2,4.9-4.9,4.9ZM55.26,255.11h-30.39c-2.71,0-4.9-2.2-4.9-4.9s2.2-4.9,4.9-4.9h30.39c2.71,0,4.9,2.2,4.9,4.9s-2.2,4.9-4.9,4.9ZM80.48,492.71c0,2.71-2.2,4.9-4.9,4.9s-4.9-2.19-4.9-4.9V228.63c0-2.71,2.2-4.9,4.9-4.9s4.9,2.2,4.9,4.9v264.07ZM64.25,129.56v61.51H24.87V25.76h67.59c38.17,0,58.83,18.23,58.83,49.84,0,23.1-13.86,37.68-32.58,45.46l44.98,70.02h-44.25l-36.95-61.51h-18.23ZM99.82,280.82h44.12c2.71,0,4.9,2.19,4.9,4.9s-2.2,4.9-4.9,4.9h-44.12c-2.71,0-4.9-2.19-4.9-4.9s2.2-4.9,4.9-4.9ZM94.92,250.2c0-2.71,2.2-4.9,4.9-4.9h30.39c2.71,0,4.9,2.2,4.9,4.9s-2.2,4.9-4.9,4.9h-30.39c-2.71,0-4.9-2.2-4.9-4.9ZM99.82,397.17c-2.71,0-4.9-2.19-4.9-4.9s2.2-4.9,4.9-4.9h73.21c2.71,0,4.9,2.19,4.9,4.9s-2.2,4.9-4.9,4.9h-73.21ZM141,427.78c0,2.71-2.2,4.9-4.9,4.9h-36.28c-2.71,0-4.9-2.19-4.9-4.9s2.2-4.9,4.9-4.9h36.28c2.71,0,4.9,2.19,4.9,4.9ZM137.4,361.65h-37.58c-2.71,0-4.9-2.19-4.9-4.9s2.2-4.9,4.9-4.9h37.58c2.71,0,4.9,2.19,4.9,4.9s-2.2,4.9-4.9,4.9ZM174.33,468.19h-74.52c-2.71,0-4.9-2.19-4.9-4.9s2.2-4.9,4.9-4.9h74.52c2.71,0,4.9,2.19,4.9,4.9s-2.2,4.9-4.9,4.9ZM175.97,326.14h-76.15c-2.71,0-4.9-2.19-4.9-4.9s2.2-4.9,4.9-4.9h76.15c2.71,0,4.9,2.19,4.9,4.9s-2.2,4.9-4.9,4.9ZM199.19,289.8l-26.16-73.19c-2.82-3.36-22.51-18.61-10.52-21.39,8.12-1.88,13.93,10.93,20.44,14.46l71.86,24.4-55.62,55.72Z"/>
  </g>
</svg>